PathFileType	4	(X/Y/Z)	14_2_39_p0_0-219.trc
DataRate	CameraRate	NumFrames	NumMarkers	Units	OrigDataRate	OrigDataStartFrame	OrigNumFrames
57.0	57.0	7	27	m	57.0	165	220
Frame#	Time	RHip			RKnee			RAnkle			RBigToe			RSmallToe			RHeel			LHip			LKnee			LAnkle			LBigToe			LSmallToe			LHeel			Neck			Head			Nose			RShoulder			RElbow			RWrist			RThumb			RIndex			RPinky			LShoulder			LElbow			LWrist			LThumb			LIndex			LPinky			
		X1	Y1	Z1	X2	Y2	Z2	X3	Y3	Z3	X4	Y4	Z4	X5	Y5	Z5	X6	Y6	Z6	X7	Y7	Z7	X8	Y8	Z8	X9	Y9	Z9	X10	Y10	Z10	X11	Y11	Z11	X12	Y12	Z12	X13	Y13	Z13	X14	Y14	Z14	X15	Y15	Z15	X16	Y16	Z16	X17	Y17	Z17	X18	Y18	Z18	X19	Y19	Z19	X20	Y20	Z20	X21	Y21	Z21	X22	Y22	Z22	X23	Y23	Z23	X24	Y24	Z24	X25	Y25	Z25	X26	Y26	Z26	X27	Y27	Z27	
165	2.8947368421052633	0.3057166808516709	0.6354032312757268	0.2996586110234084	0.3184468210247635	0.7910493944448317	0.7193293016342405	0.3095093960331921	0.8922730391644933	1.1066701957459246	0.25769759432246203	0.6901772989401768	1.160491218160503	0.33304247189911934	0.702340437854059	1.1543604220391608	0.2849756151814301	0.9959612685052666	1.1647198091983553	0.08138995127489115	0.6645332506007722	0.31021859999218293	0.09541741161615509	0.7831858665019542	0.6971917625747085	0.09276101991057305	0.8894373824386498	1.0954802776064358	0.1048560318328957	0.6825399317935703	1.14811613729202	0.056833245614783784	0.7450320031145455	1.162461782102278	0.10764132416658256	0.9546912700277969	1.1421597569825623	0.1817770747242279	0.5284223348055687	-0.22534715086912677	0.19176283360930857	0.4146273591237238	-0.4465644578745863	0.15898714059362945	0.3590132602940379	-0.32026649086418535	0.33562685191063507	0.5070576171121677	-0.12420795179371108	0.3851633747902905	0.5736838088456238	0.14110884293774553	0.32528347393555906	0.5119931407627138	0.3621113757710736	0.27915002355797264	0.5305781443509665	0.4687073532250456	0.2685913495717235	0.5766561107709068	0.4833232473450608	0.266965251155599	0.6077962329475992	0.488299917923629	0.029724109454749213	0.5280588338828531	-0.13367276114593524	-0.003693285557634723	0.5651316696880496	0.14568008494394635	0.09805758279621905	0.47570519627265156	0.3406308661704291	0.1975851184113206	0.4655295146726727	0.4120150021802715	0.19429133741526713	0.4678265602016996	0.4314896868827306	0.1462643791845632	0.40785357692135993	0.4318842614688519
166	2.912280701754386	0.3071474651401067	0.6368885347407178	0.300364055158825	0.3226850477500415	0.7922940143489287	0.7234329755995036	0.3060668166299401	0.9106862613295343	1.112631898920519	0.25774351994770733	0.690678315415525	1.1606425975843184	0.3300475607698451	0.7201926863267265	1.1608362713976081	0.28489488261040324	0.9959903320147728	1.1646804127613688	0.08235964483708488	0.6661844162510412	0.3188270549866894	0.09970856043535838	0.7853025995828705	0.6975125481503616	0.09283953200824872	0.8894435997836468	1.095270870832488	0.10478537923630306	0.682793591186106	1.1485301547972497	0.04807207597422113	0.7603671029374257	1.1684197718413485	0.11317572853393375	0.9603466280055031	1.1481488490779757	0.18178100340207676	0.5283462734019174	-0.22541840560540993	0.19161901990689742	0.4139888462355688	-0.44965860395764046	0.15896282400272804	0.35898079664498134	-0.3202527087585061	0.33481143367503213	0.5058352178424559	-0.12417887134224104	0.3869916792157908	0.5584356546397169	0.1324643819910953	0.3160194224122735	0.48773731803512604	0.35983887137223997	0.2624074193891423	0.5446251719188172	0.46280791547390965	0.26061899588221715	0.591605624077114	0.4791062034682313	0.2523526913799005	0.5897082829650822	0.4762890708333461	0.029696492672021384	0.5281944098770371	-0.13372289537484816	-0.0038205115130720935	0.5647247962474822	0.14172804862971566	0.11018470847228874	0.4908140654869103	0.34181101193206415	0.22388806675337988	0.4501319564629665	0.3902189584127531	0.21658367617139834	0.45714885773273	0.4287394569880417	0.15916197807984542	0.4455652296518691	0.4367053853735674
167	2.9298245614035086	0.31596241363229527	0.6521288335505233	0.309066735915058	0.32377414574663693	0.7950675016459058	0.7284705800115333	0.30602051124544055	0.9106473748940406	1.1125056384947878	0.2577368107664653	0.6908565900292093	1.1607259099992093	0.3300920614867244	0.7199667942146434	1.1607579633691	0.2848529078964672	0.9960136205553581	1.16451157615003	0.0864113759205873	0.6679064312103788	0.31509630869997446	0.09955207732677786	0.7856247642844656	0.6937719565158322	0.09264281337030007	0.8901174613966628	1.0911497021876555	0.10481390338738976	0.6829460239456081	1.14821686479004	0.04821829123917979	0.7602549118204569	1.1678432282292837	0.11284708795213692	0.9612255694844218	1.144811331187495	0.18173406807365938	0.5283802217659421	-0.22527008607300414	0.1917709914446197	0.4145228392031632	-0.4464465656296267	0.15897932262390158	0.3590844565609934	-0.32024434030450494	0.3347379220912615	0.5059159603427449	-0.12427900812193782	0.3867978066183913	0.5581134166071821	0.132716758017282	0.3076871211578054	0.49907478612193307	0.3581050315204332	0.23477987856442276	0.5506656938710124	0.4595345889607805	0.23809188552065572	0.5776925618656336	0.47325352029120465	0.22232774928522264	0.5636461134224022	0.46640357060698345	0.02984518480682007	0.5284006655979891	-0.13381508780401166	0.0009181844705205593	0.5507401277315547	0.141401486210355	0.1226015305591889	0.48061895156033946	0.34047791274267397	0.22374752037223233	0.45334357582141366	0.3961419327615083	0.2298896122790973	0.45513237902159526	0.4274995788637944	0.17481738114719175	0.48236017188938074	0.4415664494061934
168	2.9473684210526314	0.3078939654667672	0.6683115693970157	0.31101295816449165	0.31849065388012193	0.7807678760157692	0.7255838898899809	0.3059781569081738	0.9104728982310473	1.1124671805075148	0.2609869597166202	0.6738010835903366	1.154314159605297	0.33296500317196537	0.7020719462700868	1.1542275284148773	0.2848074588770948	0.9957141258116594	1.1646369962765017	0.08322766244876234	0.672140576294239	0.3322089579389601	0.09458000231367943	0.7850294974590079	0.6983057495138721	0.09256077061240793	0.890130521544357	1.0917706876330275	0.10486550223899635	0.6827204769441566	1.1480495065465042	0.05251296613959436	0.744043241087701	1.1621152072143888	0.11212147475640481	0.9593268763735057	1.139948276124416	0.18165496340578635	0.5283213497360704	-0.22513825696468526	0.19175417852521023	0.4145916394755013	-0.44642133662637906	0.16293212014369204	0.3599312259722779	-0.3204728397173009	0.33467124667039927	0.5060260680991993	-0.1245788340293838	0.3791818566918658	0.5598432447509105	0.13696527209035012	0.30192796226787705	0.4946439857987113	0.3541687113318706	0.2246893716349162	0.5097565484872602	0.4410189167475723	0.2226091073912061	0.534502305724681	0.4600250056748119	0.21661028285763165	0.5452444747272148	0.4522827310496271	0.02957828035454749	0.5280290957876339	-0.1336515009726704	0.0014589307764796644	0.5506517278626661	0.1452967941785918	0.13569907995238215	0.5073903457997615	0.34669182187306774	0.23445685934763605	0.46502651746465	0.3736132171570918	0.2355534618687206	0.4686636071037212	0.4286094385536813	0.19506251289034324	0.5116703841592599	0.44530711982607546
169	2.9649122807017543	0.3083557214367104	0.6677370296402474	0.307065527700758	0.3175682632167661	0.7793630783225161	0.716893019755038	0.30593269486567654	0.9107677191774459	1.1126059596559519	0.26114284754152783	0.674037295210812	1.1543325173101036	0.3333079330213519	0.7029085504904584	1.1543453065072045	0.2848085642335514	0.995965844490611	1.1645967044330665	0.08379925173031023	0.6717494803632763	0.32865575499851113	0.09460208058563911	0.784856846594929	0.6979702118210971	0.09259798391543979	0.89021022720263	1.091855408408598	0.10824593852793607	0.6975529378339484	1.1531719902956743	0.048057513432040413	0.7595951562883929	1.1675058737241544	0.117623591884419	0.9660074367119843	1.1466201751333174	0.1813983528939736	0.5271454200914055	-0.22507864563810592	0.19180855396980975	0.414471574400696	-0.4463975073279867	0.1629419063554443	0.36002822359201103	-0.3204795365316165	0.33479791994454905	0.5056056098349792	-0.12824707179679	0.37758700302880965	0.5578197973411312	0.1368620333940649	0.2996137036972218	0.4904709144079674	0.3459882641338638	0.22585498208477434	0.5083032117837337	0.43547908492441495	0.2290027394201114	0.5281969484263098	0.4511507601589181	0.22466859922337856	0.5459783418936331	0.44560318785658803	0.029596508737690243	0.5278594209034734	-0.13371979584445592	0.001417863795014886	0.5509483565094644	0.1453087933401717	0.14847259087580122	0.533494377743322	0.3454972710735699	0.2621082193165992	0.5152801672151878	0.38743803436486274	0.2623863545729841	0.5190948992866685	0.4318798186769851	0.21042390445327694	0.5358666815610292	0.45284161744090046
170	2.982456140350877	0.3078482388832948	0.6690020252914997	0.31128109775519053	0.31757593429029396	0.7786177132273373	0.7204413325679975	0.3059770232864476	0.910623184044177	1.1126025607559253	0.2658646802460348	0.6764132574240312	1.1550695433730753	0.3334810316872225	0.7033101552626425	1.1543972422134225	0.2848032401039167	0.9959499998621136	1.164474074567011	0.08324042976303878	0.6726260204800579	0.3325836242050638	0.0994434241384716	0.7850471048653155	0.6940550870056905	0.09255342326583682	0.8903252027352507	1.091982131317806	0.10485001107542269	0.6827335102494849	1.1481073007302887	0.05256558700593168	0.7439803808166486	1.161933125637133	0.11309653196350102	0.9623979589598655	1.145460134758644	0.18164205424771007	0.5283078544635053	-0.22521608101153737	0.19180531947538404	0.4144095960723608	-0.44637914923807875	0.16295003146055423	0.3599493168073576	-0.320442420716663	0.3342327842914575	0.5040291253494549	-0.13197892949707826	0.37407001536215545	0.5577598792373017	0.13326042035044414	0.28687994959667407	0.47690992465778204	0.3447404486807113	0.22080725757196468	0.49568912652960995	0.4340791204888766	0.22098123665448666	0.5287772094985904	0.45107989760344885	0.21814826421247777	0.5385767460793491	0.4483243810400933	0.029709637202663352	0.5281132574275139	-0.13380670092431587	0.0015250411135114275	0.5506594246483375	0.13819474243222407	0.14827580479848662	0.5332319853397347	0.3414939579698944	0.25807708060297013	0.5033772872696105	0.38537126964961355	0.2621651162143283	0.5187436974401789	0.43167328048051257	0.2138296898335016	0.5463839122722575	0.4512330099935464
171	3.0	0.30400285429571594	0.6670595946752538	0.3071366254866043	0.31751488999522337	0.7786567513723766	0.7205400267488187	0.30599300693190035	0.9103742242328186	1.1124368480022617	0.2577146662264366	0.6774754015263013	1.1560947937180732	0.33308004939213454	0.7017673302782836	1.1541658595564388	0.28478253302857115	0.9958937574571263	1.1645415312486536	0.08317584020520048	0.672552098807043	0.33216497161689673	0.09868797607847785	0.7861156807763976	0.6981535175294634	0.0925854116492331	0.8902433395879727	1.09188890661955	0.10488930777797564	0.6827227294259365	1.148175696203635	0.05256277038223599	0.7440278437309293	1.1620537996019065	0.11749413307780719	0.9776260390151364	1.1504467770343905	0.1817879437192941	0.5287550741861832	-0.2215533229821225	0.1918235055939588	0.41443691113728115	-0.44637774016872483	0.16295798641519757	0.35996068468652825	-0.32040252179083306	0.33474094723415454	0.5055554353824961	-0.1284239129546492	0.36913044615147045	0.5460014500734937	0.1331172895453295	0.2819137544045645	0.47381099048930153	0.3404505497457248	0.21768827070334335	0.493768298281995	0.4335774537559943	0.2156615052673953	0.5001381672270105	0.4467597165404584	0.21647376898262027	0.5102014650568961	0.4408635143370461	0.02966123627840151	0.5281579317435023	-0.13380546190368459	0.005620753867252631	0.5517466307511977	0.1416756090028028	0.1521319651216462	0.5449994281212044	0.34239632989121643	0.26127205074454674	0.4877890380226062	0.375825588740399	0.2610218384323475	0.4918752103348687	0.42446597961949445	0.2156534691170592	0.5392136949670783	0.45038079449338997
